# xmcd CD database file
#
# Track frame offsets:
#	150
#	29250
#	50342
#	65541
#	80216
#	109415
#	132692
#
# Disc length: 2090 seconds
#
# Revision: 0
# Processed by: cddbd v1.5.2PL0 Copyright (c) Steve Scherf et al.
# Submitted via: CDex 1.70beta2
#
DISCID=67082807
DTITLE=Janaka - Oriental Christ
DYEAR=2005
DGENRE=New Age
TTITLE0=Oriental Christ
TTITLE1=Opal Flame
TTITLE2=Jesus by the Ganges
TTITLE3=Love Divine
TTITLE4=Hay Hare Sundra
TTITLE5=Om Christ
TTITLE6=Jai Ananda/Om Shanti
EXTD=YEAR: 2005
EXTT0=
EXTT1=
EXTT2=
EXTT3=
EXTT4=
EXTT5=
EXTT6=
PLAYORDER=
